<svg width="109" height="95" viewBox="0 0 109 95" fill="none" xmlns="http://www.w3.org/2000/svg">
<path d="M54.5 0C84.475 0 109 19.9277 109 44.5312C109 69.1346 84.475 89.0623 54.5 89.0623C47.742 89.0623 41.2565 88.0604 35.2615 86.2791C19.3475 100.195 14.9875 92.2123 14.9875 92.2123C27.686 79.2426 14.715 78.4862 14.9875 75.1464C5.7225 67.1864 0 56.3876 0 44.5312C0 19.9277 24.525 0 54.5 0Z" fill="#202020"/>
<g filter="url(#filter0_i_1_221)">
<path d="M46.2985 47.84L36.4932 34.9386L83.7088 25.7506L64.5727 41.322L74.378 54.2234L27.1624 63.4114L46.2985 47.84Z" fill="#797979"/>
</g>
<defs>
<filter id="filter0_i_1_221" x="27.1624" y="25.7506" width="56.5464" height="37.6608" filterUnits="userSpaceOnUse" color-interpolation-filters="sRGB">
<feFlood flood-opacity="0" result="BackgroundImageFix"/>
<feBlend mode="normal" in="SourceGraphic" in2="BackgroundImageFix" result="shape"/>
<feColorMatrix in="SourceAlpha" type="matrix" values="0 0 0 0 0 0 0 0 0 0 0 0 0 0 0 0 0 0 127 0" result="hardAlpha"/>
<feOffset dx="-4" dy="2"/>
<feComposite in2="hardAlpha" operator="arithmetic" k2="-1" k3="1"/>
<feColorMatrix type="matrix" values="0 0 0 0 0 0 0 0 0 0 0 0 0 0 0 0 0 0 0.25 0"/>
<feBlend mode="normal" in2="shape" result="effect1_innerShadow_1_221"/>
</filter>
</defs>
</svg>
